<svg width="103" height="21" viewBox="0 0 103 21" fill="none" xmlns="http://www.w3.org/2000/svg">
<path d="M21.8883 2.24568C20.2437 1.46523 18.497 0.896421 16.6738 0.578949C16.4443 0.989021 16.1893 1.54459 16.0108 1.98112C14.0717 1.6901 12.1465 1.6901 10.2341 1.98112C10.0556 1.54459 9.78784 0.989021 9.57109 0.578949C7.73521 0.896421 5.98855 1.46523 4.35535 2.24568C1.05327 7.29879 0.160809 12.2328 0.607037 17.1007C2.79993 18.7542 4.91635 19.7596 6.99577 20.4211C7.50575 19.7067 7.96473 18.9394 8.35996 18.1326C7.60775 17.8415 6.89378 17.4844 6.20531 17.0611C6.3838 16.9289 6.5623 16.7833 6.72805 16.6378C10.8843 18.6088 15.3862 18.6088 19.4914 16.6378C19.6699 16.7833 19.8357 16.9289 20.0142 17.0611C19.3257 17.4844 18.6117 17.8415 17.8595 18.1326C18.2547 18.9394 18.7137 19.7067 19.2237 20.4211C21.3018 19.7596 23.431 18.7542 25.6124 17.1007C26.1606 11.4657 24.7442 6.57129 21.8883 2.24568ZM8.93367 14.098C7.68422 14.098 6.66427 12.9207 6.66427 11.4789C6.66427 10.037 7.65872 8.85969 8.93367 8.85969C10.1958 8.85969 11.2285 10.037 11.203 11.4789C11.203 12.9207 10.1958 14.098 8.93367 14.098ZM17.3113 14.098C16.0618 14.098 15.0406 12.9207 15.0406 11.4789C15.0406 10.037 16.0363 8.85969 17.3113 8.85969C18.5735 8.85969 19.6062 10.037 19.5807 11.4789C19.5807 12.9207 18.5862 14.098 17.3113 14.098Z" fill="white" fill-opacity="0.8"/>
<path d="M49.0229 6.90242C50.0007 6.90242 50.7951 6.16204 50.7951 5.24891C50.7951 4.33566 50.0007 3.59541 49.0229 3.59541C48.0437 3.59541 47.2507 4.33566 47.2507 5.24891C47.2507 6.16204 48.0437 6.90242 49.0229 6.90242Z" fill="white" fill-opacity="0.8"/>
<path d="M34.1223 5.44801H39.538C40.8374 5.44801 41.9457 5.65928 42.8503 6.0819C43.7547 6.50453 44.43 7.08564 44.8759 7.83836C45.3217 8.59116 45.551 9.44953 45.551 10.4269C45.551 11.3777 45.3218 12.2361 44.8504 13.0153C44.379 13.7813 43.6656 14.4019 42.7101 14.851C41.7547 15.3 40.5698 15.5245 39.1558 15.5245H34.1223V5.44801ZM39.0921 12.9624C39.9711 12.9624 40.6463 12.7379 41.1177 12.2758C41.5891 11.8267 41.8311 11.1928 41.8311 10.4136C41.8311 9.68726 41.6145 9.10615 41.1941 8.6704C40.7737 8.23457 40.1368 8.01005 39.2832 8.01005H37.5888V12.9624H39.0921Z" fill="white" fill-opacity="0.8"/>
<path d="M53.9859 15.512C53.2343 15.3139 52.5591 15.0233 51.9603 14.6271V12.2367C52.419 12.6065 53.0177 12.897 53.7821 13.1348C54.5464 13.3725 55.2854 13.4914 55.9988 13.4914C56.33 13.4914 56.5848 13.4517 56.7504 13.3593C56.916 13.2668 57.0052 13.1612 57.0052 13.0291C57.0052 12.8838 56.9542 12.765 56.8651 12.6725C56.7759 12.5801 56.5975 12.5008 56.33 12.4216L54.6611 12.0387C53.7057 11.8142 53.0304 11.484 52.6227 11.0878C52.2151 10.6916 52.024 10.1501 52.024 9.48979C52.024 8.9351 52.2024 8.44652 52.5463 8.0371C52.903 7.62768 53.3999 7.31071 54.0496 7.08619C54.6993 6.86176 55.451 6.7429 56.33 6.7429C57.1071 6.7429 57.8205 6.82214 58.4702 7.00704C59.1199 7.17864 59.655 7.40316 60.0754 7.6673V9.92563C59.6423 9.66148 59.1327 9.45017 58.5722 9.29169C57.9989 9.1332 57.4129 9.05396 56.8141 9.05396C55.9478 9.05396 55.5147 9.21245 55.5147 9.51621C55.5147 9.66149 55.5784 9.76714 55.7185 9.84638C55.8587 9.92563 56.1006 9.99166 56.4574 10.0709L57.846 10.335C58.7505 10.4934 59.4257 10.784 59.8716 11.1934C60.3175 11.6028 60.5341 12.1971 60.5341 13.0027C60.5341 13.8744 60.1646 14.5743 59.4257 15.0761C58.6868 15.5912 57.6421 15.842 56.2917 15.842C55.5019 15.8156 54.7375 15.71 53.9859 15.512Z" fill="white" fill-opacity="0.8"/>
<path d="M63.975 15.2086C63.1851 14.7991 62.5736 14.2577 62.1787 13.571C61.771 12.8842 61.5799 12.1051 61.5799 11.2334C61.5799 10.375 61.7837 9.59581 62.2042 8.92234C62.6246 8.23557 63.236 7.70729 64.0387 7.31116C64.8412 6.92816 65.8095 6.73005 66.9305 6.73005C68.3191 6.73005 69.4657 7.03381 70.383 7.64125V10.2694C70.0644 10.0449 69.6823 9.84675 69.2492 9.71468C68.816 9.5694 68.3573 9.50336 67.8733 9.50336C67.007 9.50336 66.3446 9.66185 65.8477 9.99202C65.3636 10.3222 65.1215 10.7448 65.1215 11.273C65.1215 11.7881 65.3508 12.2107 65.835 12.5409C66.3063 12.871 66.9942 13.0427 67.886 13.0427C68.3446 13.0427 68.8032 12.9767 69.2492 12.8314C69.6951 12.6861 70.0899 12.5277 70.4084 12.3164V14.8652C69.3892 15.4991 68.2045 15.8161 66.8668 15.8161C65.733 15.8161 64.7775 15.6048 63.975 15.2086Z" fill="white" fill-opacity="0.8"/>
<path d="M74.0151 15.2086C73.2125 14.7991 72.601 14.2577 72.1806 13.5578C71.7602 12.8578 71.5436 12.0787 71.5436 11.207C71.5436 10.3486 71.7602 9.5694 72.1806 8.89592C72.601 8.22236 73.2125 7.69408 74.0024 7.31116C74.7922 6.92816 75.7476 6.73005 76.8445 6.73005C77.9401 6.73005 78.8956 6.91495 79.6855 7.31116C80.4753 7.69408 81.0868 8.22236 81.5072 8.89592C81.9276 9.5694 82.1314 10.3354 82.1314 11.207C82.1314 12.0654 81.9276 12.8578 81.5072 13.5578C81.0868 14.2577 80.488 14.8123 79.6855 15.2086C78.8828 15.6048 77.9401 15.8161 76.8445 15.8161C75.7603 15.8161 74.8176 15.6048 74.0151 15.2086ZM78.2331 12.6597C78.5643 12.3164 78.7427 11.8409 78.7427 11.273C78.7427 10.692 78.5771 10.243 78.2331 9.89958C77.8892 9.55619 77.4305 9.3845 76.8572 9.3845C76.2585 9.3845 75.7986 9.55619 75.4547 9.89958C75.1234 10.243 74.945 10.692 74.945 11.273C74.945 11.8541 75.1107 12.3164 75.4547 12.6597C75.7986 13.0163 76.2585 13.188 76.8572 13.188C77.4305 13.1748 77.9019 13.0031 78.2331 12.6597Z" fill="white" fill-opacity="0.8"/>
<path d="M90.6546 7.25762V10.3612C90.2978 10.1235 89.8392 10.0046 89.2786 10.0046C88.5397 10.0046 87.966 10.2423 87.5714 10.7045C87.1761 11.1667 86.9722 11.8931 86.9722 12.8704V15.5117H83.571V7.11234H86.9089V9.79329C87.0873 8.81596 87.3931 8.08966 87.8007 7.62741C88.2084 7.16517 88.7435 6.91432 89.3929 6.91432C89.877 6.91432 90.2978 7.03318 90.6546 7.25762Z" fill="white" fill-opacity="0.8"/>
<path d="M102.122 5.15784V15.5248H98.7211V13.6363C98.4277 14.3495 97.9945 14.891 97.4084 15.2607C96.8216 15.6305 96.095 15.8154 95.2286 15.8154C94.4642 15.8154 93.7894 15.6173 93.2157 15.2343C92.6428 14.8514 92.1973 14.3099 91.8915 13.6363C91.5858 12.9496 91.4329 12.1836 91.4329 11.3385C91.4197 10.4536 91.5858 9.66125 91.9293 8.96127C92.2606 8.26138 92.7447 7.7199 93.3562 7.32368C93.9678 6.92747 94.6681 6.72937 95.458 6.72937C97.0764 6.72937 98.1605 7.45575 98.7211 8.92165V5.15784H102.122ZM98.2115 12.593C98.5551 12.2497 98.7334 11.7874 98.7334 11.2328C98.7334 10.6913 98.5682 10.2555 98.2238 9.92539C97.8802 9.59521 97.4216 9.42352 96.847 9.42352C96.2733 9.42352 95.8147 9.59521 95.4711 9.9386C95.1267 10.2819 94.9615 10.7177 94.9615 11.2724C94.9615 11.827 95.1267 12.2629 95.4711 12.6063C95.8147 12.9496 96.261 13.1213 96.8339 13.1213C97.4084 13.1213 97.8671 12.9496 98.2115 12.593Z" fill="white" fill-opacity="0.8"/>
<path d="M50.4571 8.74953C49.3742 9.23811 48.0238 9.25131 46.9155 8.74953V15.5244H50.4571V8.74953Z" fill="white" fill-opacity="0.8"/>
</svg>
