<svg width="34" height="30" viewBox="0 0 34 30" fill="none" xmlns="http://www.w3.org/2000/svg">
<path fill-rule="evenodd" clip-rule="evenodd" d="M2.33732 12.9148C11.4641 8.68111 17.5501 5.89 20.5952 4.54148C29.2896 0.691161 31.0963 0.022321 32.2738 0.000235484C32.5328 -0.00462198 33.1119 0.063715 33.487 0.387779C33.8037 0.661413 33.8908 1.03105 33.9325 1.29049C33.9742 1.54992 34.0262 2.14092 33.9849 2.60271C33.5137 7.8735 31.475 20.6643 30.4379 26.5677C29.999 29.0656 29.1349 29.9032 28.2983 29.9851C26.4802 30.1633 25.0996 28.7059 23.3387 27.4769C20.5833 25.5538 19.0266 24.3566 16.3519 22.48C13.2609 20.3113 15.2647 19.1193 17.0263 17.1712C17.4873 16.6614 25.4978 8.90377 25.6529 8.20002C25.6722 8.11201 25.6902 7.78393 25.5072 7.6107C25.3241 7.43746 25.0539 7.4967 24.859 7.54381C24.5826 7.6106 20.1807 10.7084 11.6533 16.8371C10.4038 17.7506 9.27208 18.1957 8.25809 18.1723C7.14025 18.1466 4.98997 17.4994 3.39146 16.9462C1.43082 16.2676 -0.127454 15.9088 0.00823682 14.7564C0.078913 14.1562 0.855275 13.5423 2.33732 12.9148Z" fill="white"/>
</svg>
