<svg width="20" height="20" viewBox="0 0 20 20" fill="white" xmlns="http://www.w3.org/2000/svg">
<path d="M10 10.0526C12.2941 10.0526 14.1538 8.24999 14.1538 6.02632C14.1538 3.80264 12.2941 2 10 2C7.70589 2 5.84615 3.80264 5.84615 6.02632C5.84615 8.24999 7.70589 10.0526 10 10.0526Z" fill="white"/>
<path d="M11.3846 10.9474H8.61538C7.39176 10.9488 6.21867 11.4206 5.35343 12.2592C4.4882 13.0979 4.00147 14.235 4 15.4211V18.1053C4 18.3426 4.09725 18.5701 4.27036 18.7379C4.44347 18.9057 4.67826 19 4.92308 19H15.0769C15.3217 19 15.5565 18.9057 15.7296 18.7379C15.9027 18.5701 16 18.3426 16 18.1053V15.4211C15.9985 14.235 15.5118 13.0979 14.6466 12.2592C13.7813 11.4206 12.6082 10.9488 11.3846 10.9474Z" fill="white"/>
</svg>
