<svg width="180" height="34" viewBox="0 0 180 34" fill="none" xmlns="http://www.w3.org/2000/svg">
<path d="M15.1283 34H16.4438C23.6001 34 27.1651 34 29.3751 31.62C31.572 29.24 31.572 25.3867 31.572 17.7083V16.2633C31.572 8.61333 31.572 4.76 29.3751 2.38C27.1651 0 23.5869 0 16.4438 0H15.1283C7.97194 0 4.40693 0 2.19689 2.38C0 4.76 0 8.61333 0 16.2917V17.7367C0 25.3867 0 29.24 2.21004 31.62C4.42008 34 7.99825 34 15.1283 34Z" fill="#0077FF"/>
<path d="M16.7989 24.4942C9.60314 24.4942 5.49878 19.1817 5.32776 10.3417H8.93224C9.05063 16.8301 11.7079 19.5784 13.8127 20.1451V10.3417H17.2067V15.9376C19.2852 15.6967 21.469 13.1467 22.2056 10.3417H25.5996C25.322 11.7965 24.7687 13.1739 23.9742 14.3878C23.1797 15.6018 22.1611 16.6261 20.9822 17.3967C22.2982 18.1009 23.4605 19.0976 24.3924 20.321C25.3244 21.5444 26.0049 22.9668 26.3889 24.4942H22.6529C22.3082 23.1676 21.6075 21.9799 20.6386 21.0803C19.6698 20.1806 18.476 19.6089 17.2067 19.4367V24.4942H16.7989Z" fill="white"/>
<path fill-rule="evenodd" clip-rule="evenodd" d="M89.2304 17C89.2304 21.7317 86.0338 24.7917 81.4953 24.7917C76.9568 24.7917 73.7601 21.7317 73.7601 17C73.7601 12.2683 76.9568 9.20833 81.4953 9.20833C86.0338 9.20833 89.2304 12.2683 89.2304 17ZM77.1015 17C77.1015 19.9325 78.8774 21.9583 81.4953 21.9583C84.1131 21.9583 85.8891 19.9325 85.8891 17C85.8891 14.0675 84.1131 12.1125 81.4953 12.1125C78.8774 12.1125 77.1015 14.0675 77.1015 17ZM54.6985 16.7025C55.9483 16.0792 56.7507 15.0308 56.7507 13.4017C56.7507 10.9508 54.6722 9.20833 51.6597 9.20833H44.727V24.7917H51.9623C55.08 24.7917 57.2506 22.9642 57.2506 20.4708C57.2506 18.5867 56.1061 17.1842 54.6985 16.7025ZM47.9237 12.0558H51.6466C52.7647 12.0558 53.5409 12.7642 53.5409 13.7558C53.5409 14.7475 52.7516 15.4558 51.6466 15.4558H47.9237V12.0417V12.0558ZM51.9623 21.9583H47.9369V18.1333H51.9623C53.2252 18.1333 54.0539 18.9125 54.0539 20.06C54.0539 21.1933 53.2252 21.9442 51.9623 21.9442V21.9583ZM73.4839 24.7917L66.8275 16.7025L72.9314 9.20833H69.1164L64.2754 15.2575H63.4861V9.20833H60.2894V24.7917H63.4992V18.5867H64.2754L69.2743 24.7917H73.4839ZM101.688 9.20833V15.3567H95.2028V9.20833H91.993V24.7917H95.1897V18.5017H101.675V24.7917H104.872V9.20833H101.675H101.688ZM115.409 24.7917H112.199V12.3533H107.2V9.20833H120.408V12.3533H115.409V24.7917ZM128.169 9.20833C125.354 9.20833 122.881 10.4692 122.157 13.175L125.104 13.6992C125.383 13.1408 125.803 12.6785 126.315 12.3653C126.826 12.052 127.41 11.9006 127.998 11.9283C129.748 11.9283 130.787 13.2033 130.919 15.2292H127.801C123.552 15.2292 121.434 17.2408 121.434 20.1167C121.434 23.0208 123.526 24.7917 126.472 24.7917C128.84 24.7917 130.419 23.63 131.116 22.3408L131.774 24.7917H134.142V16.0367C134.142 11.5175 131.866 9.20833 128.169 9.20833ZM127.222 22.185C125.657 22.185 124.657 21.3208 124.657 19.9608C124.657 18.7708 125.472 17.935 127.919 17.935H130.945C130.945 20.485 129.445 22.185 127.222 22.185ZM150.704 24.7917H146.494L141.495 18.5867H140.706V24.7917H137.522V9.20833H140.719V15.2575H141.495L146.323 9.20833H150.138L144.047 16.7025L150.691 24.7917H150.704ZM156.321 24.7917H159.531V12.3533H164.53V9.20833H151.322V12.3533H156.321V24.7917ZM172.502 9.20833C176.882 9.20833 180 12.325 180 16.8158C180 17.2408 179.974 17.595 179.947 17.935H168.318C168.621 20.3292 170.239 21.9442 172.686 21.9442C174.383 21.9442 175.711 21.165 176.409 20.06L179.421 20.5983C178.329 23.5733 175.501 24.7917 172.488 24.7917C168.095 24.7917 164.977 21.7033 164.977 17C164.977 12.2967 168.095 9.20833 172.488 9.20833H172.502ZM176.527 15.2292C176.287 14.2848 175.757 13.4557 175.024 12.8769C174.291 12.2981 173.397 12.0037 172.488 12.0417C171.588 12.0046 170.703 12.3006 169.98 12.8805C169.257 13.4603 168.74 14.2892 168.516 15.2292H176.527Z" fill="white"/>
</svg>
