<svg width="32" height="24" viewBox="0 0 32 24" fill="none" xmlns="http://www.w3.org/2000/svg">
<g clip-path="url(#clip0_215_20)">
<path d="M31.3035 3.87C30.9365 2.405 30.1318 1.165 28.7529 0.775C26.2541 0.065 16 0 16 0C16 0 5.74588 0.065 3.24706 0.775C1.86824 1.165 1.06824 2.405 0.696471 3.87C0.0282353 6.525 0 12 0 12C0 12 0.0282353 17.475 0.696471 20.13C1.06353 21.595 1.86824 22.835 3.24706 23.225C5.74588 23.935 16 24 16 24C16 24 26.2541 23.935 28.7529 23.225C30.1318 22.835 30.9365 21.595 31.3035 20.13C31.9718 17.475 32 12 32 12C32 12 31.9718 6.525 31.3035 3.87Z" fill="#FF0000"/>
<path d="M21.1764 12L12.7058 7V17" fill="white"/>
</g>
<defs>
<clipPath id="clip0_215_20">
<rect width="32" height="24" fill="white"/>
</clipPath>
</defs>
</svg>
